<svg width="152" height="17" viewBox="0 0 152 17" fill="none" xmlns="http://www.w3.org/2000/svg">
<path d="M9.68747 -0.00144368H9.73371C11.5063 -0.00144368 12.9629 0.0833311 14.1035 0.252881C15.2441 0.422431 16.1535 0.722997 16.8317 1.15458C17.5099 1.57075 18.0031 2.14876 18.3114 2.88861C18.6351 3.62846 18.8509 4.5687 18.9588 5.7093L13.9879 5.77866C13.9262 5.40874 13.8414 5.11588 13.7335 4.90009C13.6411 4.6843 13.4484 4.52245 13.1555 4.41456C12.8627 4.30666 12.4465 4.2373 11.907 4.20648C11.383 4.17565 10.6585 4.16023 9.73371 4.16023H9.68747C8.77807 4.16023 8.04592 4.17565 7.49103 4.20648C6.93614 4.22189 6.50456 4.26813 6.19629 4.3452C5.88801 4.40685 5.67993 4.49933 5.57204 4.62264C5.47955 4.73054 5.43331 4.87697 5.43331 5.06193C5.43331 5.21607 5.46414 5.35479 5.52579 5.4781C5.60286 5.58599 5.72617 5.67848 5.89572 5.75554C6.08068 5.8172 6.3196 5.87115 6.61245 5.91739C6.92073 5.94821 7.30607 5.97904 7.76848 6.00987L12.7625 6.33355C14.011 6.41062 15.0591 6.54935 15.9069 6.74972C16.77 6.9501 17.4559 7.23525 17.9646 7.60518C18.4886 7.97511 18.8586 8.45293 19.0744 9.03865C19.3056 9.60895 19.4212 10.3103 19.4212 11.1426C19.4212 12.1753 19.2516 13.0462 18.9125 13.7552C18.5888 14.4488 18.0417 15.0114 17.271 15.443C16.5157 15.8746 15.5215 16.1829 14.2884 16.3678C13.0553 16.5528 11.5448 16.6453 9.75683 16.6453H9.71059C7.84554 16.6453 6.29648 16.5605 5.06339 16.3909C3.84571 16.2214 2.86694 15.9285 2.12709 15.5124C1.40265 15.0808 0.878587 14.4951 0.554901 13.7552C0.246629 13.0154 0.0616654 12.0751 1.09516e-05 10.9345L4.9709 10.8652C5.01714 11.2351 5.09421 11.5279 5.20211 11.7437C5.32542 11.9595 5.54891 12.1214 5.8726 12.2293C6.19629 12.3372 6.65869 12.4065 7.25983 12.4373C7.86096 12.4682 8.67788 12.4836 9.71059 12.4836H9.75683C10.7125 12.4836 11.4909 12.4759 12.092 12.4605C12.6931 12.4296 13.1555 12.3834 13.4792 12.3217C13.8183 12.2447 14.0418 12.1445 14.1497 12.0212C14.273 11.8979 14.3347 11.736 14.3347 11.5357C14.3347 11.3815 14.3039 11.2582 14.2422 11.1657C14.1805 11.0578 14.0572 10.9731 13.8723 10.9114C13.7027 10.8497 13.4638 10.8035 13.1555 10.7727C12.8627 10.7419 12.4773 10.711 11.9995 10.6802L7.07486 10.3796C5.78012 10.3026 4.70117 10.1715 3.838 9.98658C2.97484 9.78621 2.28123 9.49335 1.75716 9.10801C1.24851 8.72267 0.886294 8.22943 0.670503 7.6283C0.454713 7.02717 0.346817 6.27961 0.346817 5.38562C0.346817 4.38373 0.50866 3.54369 0.832346 2.86549C1.15603 2.18729 1.6878 1.6324 2.42766 1.20082C3.16751 0.769237 4.13086 0.460965 5.31771 0.276002C6.50456 0.0910382 7.96115 -0.00144368 9.68747 -0.00144368ZM30.9619 4.62264C30.1295 4.62264 29.4205 4.692 28.8348 4.83073C28.2645 4.96945 27.7944 5.18524 27.4245 5.4781C27.0545 5.77096 26.7848 6.14859 26.6152 6.611C26.4457 7.07341 26.3609 7.63601 26.3609 8.29879V8.34503C26.3609 9.00782 26.4457 9.57041 26.6152 10.0328C26.7848 10.4952 27.0545 10.8729 27.4245 11.1657C27.7944 11.4586 28.2645 11.6744 28.8348 11.8131C29.4205 11.9518 30.1295 12.0212 30.9619 12.0212H31.0081C31.8405 12.0212 32.5418 11.9518 33.1121 11.8131C33.6978 11.6744 34.1756 11.4586 34.5455 11.1657C34.9155 10.8729 35.1852 10.4952 35.3548 10.0328C35.5243 9.57041 35.6091 9.00782 35.6091 8.34503V8.29879C35.6091 7.63601 35.5243 7.07341 35.3548 6.611C35.1852 6.14859 34.9155 5.77096 34.5455 5.4781C34.1756 5.18524 33.6978 4.96945 33.1121 4.83073C32.5418 4.692 31.8405 4.62264 31.0081 4.62264H30.9619ZM30.9619 -0.00144368H31.0081C32.6882 -0.00144368 34.1371 0.168106 35.3548 0.507206C36.5724 0.830892 37.5743 1.33183 38.3604 2.01003C39.1619 2.68823 39.7476 3.5514 40.1176 4.59952C40.5029 5.64765 40.6956 6.88074 40.6956 8.29879V8.34503C40.6956 9.76309 40.5029 10.9962 40.1176 12.0443C39.7476 13.077 39.1619 13.9402 38.3604 14.6338C37.5743 15.312 36.5724 15.8206 35.3548 16.1597C34.1371 16.4834 32.6882 16.6453 31.0081 16.6453H30.9619C29.2818 16.6453 27.8329 16.4834 26.6152 16.1597C25.3976 15.8206 24.388 15.312 23.5865 14.6338C22.8004 13.9402 22.2146 13.077 21.8293 12.0443C21.4594 10.9962 21.2744 9.76309 21.2744 8.34503V8.29879C21.2744 6.88074 21.4594 5.64765 21.8293 4.59952C22.2146 3.5514 22.8004 2.68823 23.5865 2.01003C24.388 1.33183 25.3976 0.830892 26.6152 0.507206C27.8329 0.168106 29.2818 -0.00144368 30.9619 -0.00144368ZM43.3472 0.22976H56.4102C57.2272 0.22976 57.9285 0.322242 58.5142 0.507206C59.1153 0.676756 59.6086 0.946494 59.9939 1.31642C60.3793 1.68635 60.6644 2.14876 60.8494 2.70365C61.0497 3.25854 61.1499 3.91362 61.1499 4.66888V4.71512C61.1499 5.42415 61.0652 6.03299 60.8956 6.54164C60.7261 7.03487 60.4563 7.44334 60.0864 7.76702C59.7165 8.07529 59.2386 8.3065 58.6529 8.46063C58.0672 8.59936 57.3582 8.66872 56.5259 8.66872V8.43751C57.4044 8.43751 58.1366 8.49917 58.7223 8.62248C59.3234 8.74579 59.8012 8.95387 60.1558 9.24673C60.5257 9.52417 60.78 9.90181 60.9187 10.3796C61.0729 10.842 61.1499 11.4278 61.1499 12.1368V16.4141H56.0634V12.5992C56.0634 12.2755 56.0326 12.0058 55.971 11.79C55.9093 11.5588 55.8091 11.3815 55.6704 11.2582C55.5471 11.1195 55.3698 11.0193 55.1386 10.9576C54.9228 10.896 54.6531 10.8652 54.3294 10.8652H48.0869V6.70348H54.7918C55.023 6.70348 55.2157 6.68807 55.3698 6.65724C55.5394 6.611 55.6704 6.54164 55.7629 6.44916C55.8708 6.35668 55.9478 6.24107 55.9941 6.10235C56.0403 5.94821 56.0634 5.77096 56.0634 5.57058V5.52434C56.0634 5.30855 56.0403 5.13129 55.9941 4.99257C55.9478 4.85385 55.8708 4.73825 55.7629 4.64576C55.6704 4.55328 55.5394 4.49163 55.3698 4.4608C55.2157 4.41456 55.023 4.39144 54.7918 4.39144H48.4337V16.4141H43.3472V0.22976ZM73.1838 4.62264C72.3514 4.62264 71.6424 4.692 71.0567 4.83073C70.4864 4.96945 70.0163 5.18524 69.6463 5.4781C69.2764 5.77096 69.0067 6.14859 68.8371 6.611C68.6676 7.07341 68.5828 7.63601 68.5828 8.29879V8.34503C68.5828 9.00782 68.6676 9.57041 68.8371 10.0328C69.0067 10.4952 69.2764 10.8729 69.6463 11.1657C70.0163 11.4586 70.4864 11.6744 71.0567 11.8131C71.6424 11.9518 72.3514 12.0212 73.1838 12.0212H73.23C74.0623 12.0212 74.7637 11.9518 75.334 11.8131C75.9197 11.6744 76.3975 11.4586 76.7674 11.1657C77.1374 10.8729 77.4071 10.4952 77.5766 10.0328C77.7462 9.57041 77.831 9.00782 77.831 8.34503V8.29879C77.831 7.63601 77.7462 7.07341 77.5766 6.611C77.4071 6.14859 77.1374 5.77096 76.7674 5.4781C76.3975 5.18524 75.9197 4.96945 75.334 4.83073C74.7637 4.692 74.0623 4.62264 73.23 4.62264H73.1838ZM73.1838 -0.00144368H73.23C74.9101 -0.00144368 76.359 0.168106 77.5766 0.507206C78.7943 0.830892 79.7962 1.33183 80.5823 2.01003C81.3838 2.68823 81.9695 3.5514 82.3394 4.59952C82.7248 5.64765 82.9175 6.88074 82.9175 8.29879V8.34503C82.9175 9.76309 82.7248 10.9962 82.3394 12.0443C81.9695 13.077 81.3838 13.9402 80.5823 14.6338C79.7962 15.312 78.7943 15.8206 77.5766 16.1597C76.359 16.4834 74.9101 16.6453 73.23 16.6453H73.1838C71.5037 16.6453 70.0548 16.4834 68.8371 16.1597C67.6194 15.8206 66.6099 15.312 65.8083 14.6338C65.0222 13.9402 64.4365 13.077 64.0512 12.0443C63.6813 10.9962 63.4963 9.76309 63.4963 8.34503V8.29879C63.4963 6.88074 63.6813 5.64765 64.0512 4.59952C64.4365 3.5514 65.0222 2.68823 65.8083 2.01003C66.6099 1.33183 67.6194 0.830892 68.8371 0.507206C70.0548 0.168106 71.5037 -0.00144368 73.1838 -0.00144368ZM85.5691 0.22976H93.3144L99.3026 14.102H96.112L102.1 0.22976H109.846V16.4141H104.759V2.5418H105.892L99.9038 16.4141H95.5109L89.5227 2.5418H90.6556V16.4141H85.5691V0.22976ZM118.202 0.22976H125.092L131.589 16.4141H126.363L121.254 2.77301H122.04L116.93 16.4141H111.705L118.202 0.22976ZM116.676 9.36233H126.618V13.2928H116.676V9.36233ZM132.511 0.22976H138.522L142.291 5.22377H141.69L145.458 0.22976H151.47L145.343 8.06759V7.69766L151.932 16.4141H145.828L141.782 10.842H142.198L138.152 16.4141H132.048L138.638 7.69766V8.06759L132.511 0.22976Z" fill="#6588F4"/>
</svg>
