<svg width="244" height="40" viewBox="0 0 244 40" fill="none" xmlns="http://www.w3.org/2000/svg">
<path d="M32.248 2.0314H38.8399L43.8833 33H39.0168L38.132 26.8505V26.939H32.6019L31.7171 33H27.2045L32.248 2.0314ZM37.5569 22.7361L35.3891 7.42878H35.3006L33.1771 22.7361H37.5569ZM46.2444 2.0314H59.5166V6.45548H51.1108V14.64H57.7912V19.0641H51.1108V28.5759H59.5166V33H46.2444V2.0314ZM61.4293 28.6644L70.4545 6.45548H61.8717V2.0314H75.6749V6.367L66.6498 28.5759H75.6749V33H61.4293V28.6644ZM82.1918 2.0314H88.7837L93.8271 33H88.9606L88.0758 26.8505V26.939H82.5457L81.6609 33H77.1483L82.1918 2.0314ZM87.5007 22.7361L85.3329 7.42878H85.2444L83.1208 22.7361H87.5007ZM96.1881 2.0314H101.055V15.0825L107.248 2.0314H112.115L106.319 13.4013L112.203 33H107.116L103.001 19.1969L101.055 23.1343V33H96.1881V2.0314ZM114.507 2.0314H121.452L124.549 24.1961H124.638L127.735 2.0314H134.68V33H130.079V9.55234H129.991L126.452 33H122.381L118.842 9.55234H118.754V33H114.507V2.0314ZM138.312 2.0314H143.178V33H138.312V2.0314Z" fill="#FED700"/>
<path d="M160.81 33.4424C158.451 33.4424 156.652 32.7788 155.413 31.4516C154.174 30.0949 153.555 28.163 153.555 25.656V9.37538C153.555 6.8684 154.174 4.95129 155.413 3.62407C156.652 2.26735 158.451 1.58899 160.81 1.58899C163.17 1.58899 164.969 2.26735 166.208 3.62407C167.446 4.95129 168.066 6.8684 168.066 9.37538V12.0298H163.465V9.06569C163.465 7.03061 162.624 6.01307 160.943 6.01307C159.262 6.01307 158.421 7.03061 158.421 9.06569V26.0099C158.421 28.0155 159.262 29.0183 160.943 29.0183C162.624 29.0183 163.465 28.0155 163.465 26.0099V19.9489H161.031V15.5249H168.066V25.656C168.066 28.163 167.446 30.0949 166.208 31.4516C164.969 32.7788 163.17 33.4424 160.81 33.4424ZM171.19 2.0314H178.401C180.908 2.0314 182.737 2.62127 183.887 3.80103C185.038 4.95129 185.613 6.73567 185.613 9.15417V11.0565C185.613 14.2714 184.551 16.3064 182.427 17.1618V17.2503C183.607 17.6042 184.433 18.3268 184.905 19.4181C185.406 20.5093 185.657 21.9693 185.657 23.7979V29.2395C185.657 30.1243 185.686 30.8469 185.745 31.4073C185.804 31.9382 185.952 32.4691 186.188 33H181.233C181.056 32.4986 180.938 32.0267 180.879 31.5843C180.82 31.1419 180.79 30.3455 180.79 29.1953V23.5325C180.79 22.1167 180.555 21.1287 180.083 20.5683C179.64 20.0079 178.859 19.7277 177.738 19.7277H176.057V33H171.19V2.0314ZM177.826 15.3037C178.8 15.3037 179.522 15.053 179.994 14.5516C180.496 14.0502 180.746 13.2096 180.746 12.0298V9.64083C180.746 8.52006 180.54 7.70897 180.127 7.20758C179.743 6.70618 179.124 6.45548 178.269 6.45548H176.057V15.3037H177.826ZM196.068 33.4424C193.679 33.4424 191.85 32.764 190.582 31.4073C189.314 30.0506 188.68 28.1335 188.68 25.656V9.37538C188.68 6.89789 189.314 4.98079 190.582 3.62407C191.85 2.26735 193.679 1.58899 196.068 1.58899C198.457 1.58899 200.285 2.26735 201.554 3.62407C202.822 4.98079 203.456 6.89789 203.456 9.37538V25.656C203.456 28.1335 202.822 30.0506 201.554 31.4073C200.285 32.764 198.457 33.4424 196.068 33.4424ZM196.068 29.0183C197.749 29.0183 198.589 28.0008 198.589 25.9657V9.06569C198.589 7.03061 197.749 6.01307 196.068 6.01307C194.387 6.01307 193.546 7.03061 193.546 9.06569V25.9657C193.546 28.0008 194.387 29.0183 196.068 29.0183ZM213.826 33.4424C211.466 33.4424 209.667 32.7788 208.428 31.4516C207.189 30.0949 206.57 28.163 206.57 25.656V2.0314H211.437V26.0099C211.437 27.0717 211.643 27.8386 212.056 28.3105C212.498 28.7824 213.118 29.0183 213.914 29.0183C214.71 29.0183 215.315 28.7824 215.728 28.3105C216.17 27.8386 216.392 27.0717 216.392 26.0099V2.0314H221.081V25.656C221.081 28.163 220.462 30.0949 219.223 31.4516C217.984 32.7788 216.185 33.4424 213.826 33.4424ZM224.547 2.0314H231.714C234.133 2.0314 235.947 2.68026 237.156 3.978C238.365 5.27573 238.97 7.17808 238.97 9.68507V12.7377C238.97 15.2447 238.365 17.147 237.156 18.4448C235.947 19.7425 234.133 20.3914 231.714 20.3914H229.414V33H224.547V2.0314ZM231.714 15.9673C232.51 15.9673 233.1 15.7461 233.484 15.3037C233.897 14.8612 234.103 14.1092 234.103 13.0474V9.37538C234.103 8.3136 233.897 7.5615 233.484 7.1191C233.1 6.67669 232.51 6.45548 231.714 6.45548H229.414V15.9673H231.714Z" fill="black"/>
<path d="M2.58888 37.4476L0 40V10.4649L10.392 0V29.5351L7.8031 32.1969V17.4294L5.17776 20.0182V16.4084L7.8031 13.6737V6.34458L2.58888 11.6317V37.4476Z" fill="#FED700"/>
<path d="M18.2316 33.7643L10.392 25.9248V22.242V7.43797V3.82812L18.2316 11.5948V18.9968L15.5698 16.335V12.6522L10.392 7.43797V22.242L15.5698 27.4197V23.737L12.9809 21.1846V17.4653L18.2316 22.6795V33.7643Z" fill="black"/>
</svg>
