<svg width="177" height="40" viewBox="0 0 177 40" fill="none" xmlns="http://www.w3.org/2000/svg">
<path d="M55.9346 25.6246L45.3302 25.6246L43.5469 29.8281H39.1522L48.4192 7.53657L52.8456 7.53657L62.1125 29.8281H57.7179L55.9346 25.6246ZM54.4697 22.0261L50.6483 12.9821L46.7951 22.0261L54.4697 22.0261ZM67.0162 11.358H58.9594V7.53657L79.3402 7.53657V11.358L71.2834 11.358V29.8281H67.0162V11.358ZM76.6219 26.2296H77.5455C78.3522 26.2296 78.9254 25.9536 79.2651 25.4017C79.626 24.8497 79.9126 24.1703 80.1249 23.3636L84.0418 7.53657L98.1811 7.53657V29.8281H93.9457V11.358H87.3219L83.9145 25.2106C83.7446 25.89 83.5217 26.5162 83.2457 27.0894C82.9697 27.6414 82.6194 28.1297 82.1948 28.5543C81.7702 28.9577 81.2607 29.2761 80.6663 29.5097C80.0718 29.722 79.3606 29.8281 78.5326 29.8281H76.6219V26.2296ZM116.602 25.6246L105.998 25.6246L104.214 29.8281H99.8196L109.086 7.53657H113.513L122.78 29.8281H118.385L116.602 25.6246ZM115.137 22.0261L111.316 12.9821L107.462 22.0261L115.137 22.0261ZM124.415 7.53657H128.65V16.7716L140.114 16.7716V7.53657H144.382V29.8281L140.114 29.8281V20.5931L128.65 20.5931V29.8281H124.415V7.53657ZM155.007 11.358H146.95V7.53657L167.331 7.53657V11.358H159.274V29.8281H155.007V11.358Z" fill="#035090"/>
<circle cx="18.9655" cy="18.9655" r="18.9655" fill="#035090"/>
<circle cx="18.9655" cy="18.9673" r="18.2759" fill="#FEFEFE"/>
<circle cx="18.9655" cy="18.9651" r="17.5862" fill="#035090"/>
<path d="M33.6207 10.6886L18.9655 35.6886L4.13794 10.6886L17.7586 10.3438V12.4127L9.82759 13.1024L18.9655 24.8265L27.931 13.1024L20 12.4127V10.3438L33.6207 10.6886Z" fill="#FEFEFE"/>
<circle cx="18.9655" cy="17.2402" r="3.10345" fill="#FEFEFE"/>
</svg>
