<svg width="164" height="28" viewBox="0 0 164 28" fill="none" xmlns="http://www.w3.org/2000/svg">
<path d="M-3.95355e-06 0.732406L7.31864 0.732406L7.31864 10.2466H16.101V0.732406L23.4197 0.732406L23.4197 26.3477H16.101V16.8334L7.31864 16.8334L7.31864 26.3477H-3.95355e-06L-3.95355e-06 0.732406ZM39.2834 27.0795C37.4293 27.0795 35.6729 26.7258 34.014 26.0183C32.3795 25.3108 30.9401 24.3472 29.696 23.1275C28.4762 21.8833 27.5126 20.444 26.8051 18.8095C26.0976 17.1506 25.7439 15.3941 25.7439 13.54C25.7439 11.6616 26.0976 9.90511 26.8051 8.27061C27.5126 6.63611 28.4762 5.20898 29.696 3.9892C30.9401 2.74503 32.3795 1.76921 34.014 1.06175C35.6729 0.354277 37.4293 0.000542471 39.2834 0.000542471C41.1618 0.000542471 42.9183 0.354277 44.5528 1.06175C46.1873 1.76921 47.6144 2.74503 48.8342 3.9892C50.0784 5.20898 51.0542 6.63611 51.7617 8.27061C52.4691 9.90511 52.8229 11.6616 52.8229 13.54C52.8229 15.3941 52.4691 17.1506 51.7617 18.8095C51.0542 20.444 50.0784 21.8833 48.8342 23.1275C47.6144 24.3472 46.1873 25.3108 44.5528 26.0183C42.9183 26.7258 41.1618 27.0795 39.2834 27.0795ZM33.0625 13.54C33.0625 14.4427 33.2211 15.2843 33.5382 16.065C33.8554 16.8456 34.2823 17.5287 34.819 18.1142C35.3801 18.6753 36.0388 19.1266 36.795 19.4681C37.5513 19.7853 38.3807 19.9438 39.2834 19.9438C40.186 19.9438 41.0155 19.7853 41.7717 19.4681C42.528 19.1266 43.1745 18.6753 43.7112 18.1142C44.2723 17.5287 44.7114 16.8456 45.0285 16.065C45.3457 15.2843 45.5042 14.4427 45.5042 13.54C45.5042 12.6374 45.3457 11.7958 45.0285 11.0151C44.7114 10.2344 44.2723 9.56357 43.7112 9.00247C43.1745 8.41698 42.528 7.96566 41.7717 7.64852C41.0155 7.30699 40.186 7.13622 39.2834 7.13622C38.3807 7.13622 37.5513 7.30699 36.795 7.64852C36.0388 7.96566 35.3801 8.41698 34.819 9.00247C34.2823 9.56357 33.8554 10.2344 33.5382 11.0151C33.2211 11.7958 33.0625 12.6374 33.0625 13.54ZM55.1471 0.732406L70.9554 0.732406C71.9556 0.732406 72.8948 0.92757 73.7731 1.3179C74.6513 1.68383 75.4076 2.19614 76.0418 2.85481C76.7005 3.48909 77.2128 4.24535 77.5787 5.12359C77.9691 6.00183 78.1642 6.94106 78.1642 7.94127C78.1642 9.11225 77.9203 10.1857 77.4324 11.1615C76.9445 12.1129 76.2736 12.9057 75.4197 13.54C76.2736 14.1743 76.9445 14.9794 77.4324 15.9552C77.9203 16.9066 78.1642 17.9678 78.1642 19.1388C78.1642 20.139 77.9691 21.0782 77.5787 21.9565C77.2128 22.8347 76.7005 23.6032 76.0418 24.2618C75.4076 24.8961 74.6513 25.4084 73.7731 25.7988C72.8948 26.1647 71.9556 26.3477 70.9554 26.3477H55.1471V0.732406ZM69.4916 19.7609C70.1259 19.7609 70.5894 19.6145 70.8822 19.3218C71.1993 19.0046 71.3579 18.6021 71.3579 18.1142C71.3579 17.6263 71.1993 17.2359 70.8822 16.9432C70.5894 16.6261 70.1259 16.4675 69.4916 16.4675H62.4658V19.7609H69.4916ZM62.4658 7.31918V10.6126H69.4916C70.1259 10.6126 70.5894 10.4662 70.8822 10.1735C71.1993 9.85631 71.3579 9.45379 71.3579 8.96588C71.3579 8.47797 71.1993 8.08764 70.8822 7.7949C70.5894 7.47776 70.1259 7.31918 69.4916 7.31918H62.4658ZM80.8624 0.732406L96.6707 0.732406C97.6709 0.732406 98.6101 0.92757 99.4884 1.3179C100.367 1.68383 101.123 2.19614 101.757 2.85481C102.416 3.48909 102.928 4.24535 103.294 5.12359C103.684 6.00183 103.88 6.94106 103.88 7.94127C103.88 9.11225 103.636 10.1857 103.148 11.1615C102.66 12.1129 101.989 12.9057 101.135 13.54C101.989 14.1743 102.66 14.9794 103.148 15.9552C103.636 16.9066 103.88 17.9678 103.88 19.1388C103.88 20.139 103.684 21.0782 103.294 21.9565C102.928 22.8347 102.416 23.6032 101.757 24.2618C101.123 24.8961 100.367 25.4084 99.4884 25.7988C98.6101 26.1647 97.6709 26.3477 96.6707 26.3477H80.8624V0.732406ZM95.207 19.7609C95.8412 19.7609 96.3048 19.6145 96.5975 19.3218C96.9146 19.0046 97.0732 18.6021 97.0732 18.1142C97.0732 17.6263 96.9146 17.2359 96.5975 16.9432C96.3048 16.6261 95.8412 16.4675 95.207 16.4675H88.1811V19.7609H95.207ZM88.1811 7.31918V10.6126H95.207C95.8412 10.6126 96.3048 10.4662 96.5975 10.1735C96.9146 9.85631 97.0732 9.45379 97.0732 8.96588C97.0732 8.47797 96.9146 8.08764 96.5975 7.7949C96.3048 7.47776 95.8412 7.31918 95.207 7.31918H88.1811ZM106.578 0.732406L113.896 0.732406V26.3477L106.578 26.3477V0.732406ZM121.583 17.8946C122.022 18.3337 122.535 18.7241 123.12 19.0656C123.73 19.4071 124.352 19.6999 124.986 19.9438C125.621 20.1634 126.255 20.3342 126.889 20.4561C127.524 20.5781 128.109 20.6391 128.646 20.6391C130.085 20.6391 131.097 20.444 131.683 20.0536C132.293 19.6633 132.598 19.273 132.598 18.8826C132.598 18.2728 132.268 17.8092 131.61 17.4921C130.951 17.175 129.744 16.9188 127.987 16.7236C126.353 16.5285 124.828 16.2479 123.413 15.882C121.998 15.4917 120.766 14.9672 119.717 14.3085C118.692 13.6254 117.887 12.7716 117.302 11.747C116.716 10.7224 116.424 9.46599 116.424 7.97786C116.424 6.85567 116.68 5.80667 117.192 4.83085C117.704 3.85503 118.436 3.01338 119.388 2.30592C120.339 1.59845 121.498 1.03735 122.864 0.622628C124.23 0.207904 125.755 0.000542471 127.438 0.000542471C129.951 0.000542471 132.244 0.451859 134.318 1.35449C136.416 2.25712 138.123 3.55008 139.441 5.23337L134.684 9.18544C134.244 8.74632 133.732 8.35599 133.147 8.01446C132.561 7.67292 131.939 7.39237 131.28 7.17281C130.646 6.92886 130.012 6.74589 129.378 6.62391C128.743 6.50194 128.158 6.44095 127.621 6.44095C126.182 6.44095 125.157 6.63611 124.547 7.02644C123.962 7.41677 123.669 7.80709 123.669 8.19742C123.669 8.80731 123.998 9.27082 124.657 9.58796C125.316 9.90511 126.523 10.1613 128.28 10.3564C129.939 10.5272 131.463 10.8077 132.854 11.1981C134.269 11.564 135.489 12.0885 136.513 12.7716C137.562 13.4546 138.38 14.3085 138.965 15.3331C139.551 16.3577 139.843 17.6141 139.843 19.1022C139.843 20.2244 139.587 21.2734 139.075 22.2492C138.562 23.225 137.831 24.0667 136.879 24.7741C135.928 25.4816 134.769 26.0427 133.403 26.4574C132.037 26.8722 130.512 27.0795 128.829 27.0795C126.316 27.0795 124.011 26.6282 121.913 25.7256C119.839 24.8229 118.143 23.53 116.826 21.8467L121.583 17.8946ZM148.228 7.31918H140.178V0.732406L163.597 0.732406V7.31918H155.547V26.3477H148.228V7.31918Z" fill="#CCFF00"/>
</svg>
