<svg width="217" height="40" viewBox="0 0 217 40" fill="none" xmlns="http://www.w3.org/2000/svg">
<g clip-path="url(#clip0_481_7377)">
<path d="M143.565 0.625H122.579V4.67717H130.564V39.4598H135.597V4.67717H143.582V0.625H143.565ZM168.247 0.625H147.262V4.67717H155.246V39.4598H160.262V4.67717H168.247V0.625ZM174.617 39.3902H189.736V35.3207H179.651V21.2859H189.753V17.2163H179.651V4.67717H189.753V0.625H174.635V39.3728L174.617 39.3902ZM102.01 39.3902H117.129V35.3207H107.044V21.2859H117.146V17.2163H107.044V4.67717H117.146V0.625H102.01V39.3728V39.3902ZM211.936 17.2163H203.709V4.64239H211.936V17.2163ZM198.692 39.3728H203.709V21.2859H212.561C213.73 21.2859 214.852 20.8205 215.678 19.992C216.505 19.1636 216.97 18.04 216.97 16.8685V5.025C216.965 3.85946 216.501 2.74296 215.678 1.91879C214.856 1.09462 213.742 0.62958 212.578 0.625H198.692V39.3728ZM41.8665 4.59022V35.338H50.4238V29.0772H55.4575V34.9554C55.4575 36.124 54.9953 37.2449 54.1723 38.0729C53.3492 38.9008 52.2323 39.3682 51.066 39.3728H41.2416C40.0753 39.3682 38.9584 38.9008 38.1353 38.0729C37.3122 37.2449 36.8501 36.124 36.8501 34.9554V5.025C36.8547 3.85946 37.3188 2.74296 38.1414 1.91879C38.964 1.09462 40.0783 0.62958 41.2416 0.625H51.0486C52.2119 0.62958 53.3262 1.09462 54.1488 1.91879C54.9714 2.74296 55.4355 3.85946 55.4401 5.025V10.9033H50.4064V4.64239L41.8665 4.59022ZM77.4148 22.1902L70.4718 11.025L69.7775 9.14674V39.3728H64.7438V0.625H69.3088L78.3695 15.2163L87.4475 0.625H91.9952V39.3728H86.9615V9.14674L86.2672 11.025L79.3241 22.1902H77.4148ZM24.6651 0.625H0V4.67717H24.6651V0.625ZM24.6651 9.32065H2.75985V13.3554H24.6651V9.30326V9.32065ZM24.6651 18.0163H2.75985V22.0685H24.6651V17.9641V18.0163ZM24.6651 26.712H0V30.7641H24.6651V26.6424V26.712ZM24.6651 35.4076H2.75985V39.4598H24.6651V35.3207V35.4076Z" fill="white"/>
</g>
<defs>
<clipPath id="clip0_481_7377">
<rect width="216.97" height="40" fill="white"/>
</clipPath>
</defs>
</svg>
