<svg width="254" height="32" viewBox="0 0 254 32" fill="none" xmlns="http://www.w3.org/2000/svg">
<path d="M18.6222 8.88889C17.0222 8.88889 15.6593 9.02222 14.5333 9.28889C13.437 9.55556 12.5333 9.97037 11.8222 10.5333C11.1111 11.0963 10.5926 11.8222 10.2667 12.7111C9.94074 13.6 9.77778 14.6815 9.77778 15.9556V16.0444C9.77778 17.3185 9.94074 18.4 10.2667 19.2889C10.5926 20.1778 11.1111 20.9037 11.8222 21.4667C12.5333 22.0296 13.437 22.4444 14.5333 22.7111C15.6593 22.9778 17.0222 23.1111 18.6222 23.1111H18.7111C20.3111 23.1111 21.6593 22.9778 22.7556 22.7111C23.8815 22.4444 24.8 22.0296 25.5111 21.4667C26.2222 20.9037 26.7407 20.1778 27.0667 19.2889C27.3926 18.4 27.5556 17.3185 27.5556 16.0444V15.9556C27.5556 14.6815 27.3926 13.6 27.0667 12.7111C26.7407 11.8222 26.2222 11.0963 25.5111 10.5333C24.8 9.97037 23.8815 9.55556 22.7556 9.28889C21.6593 9.02222 20.3111 8.88889 18.7111 8.88889H18.6222ZM18.6222 0H18.7111C21.9407 0 24.7259 0.325926 27.0667 0.977778C29.4074 1.6 31.3333 2.56296 32.8444 3.86667C34.3852 5.17037 35.5111 6.82963 36.2222 8.84444C36.963 10.8593 37.3333 13.2296 37.3333 15.9556V16.0444C37.3333 18.7704 36.963 21.1407 36.2222 23.1556C35.5111 25.1407 34.3852 26.8 32.8444 28.1333C31.3333 29.437 29.4074 30.4148 27.0667 31.0667C24.7259 31.6889 21.9407 32 18.7111 32H18.6222C15.3926 32 12.6074 31.6889 10.2667 31.0667C7.92593 30.4148 5.98519 29.437 4.44444 28.1333C2.93333 26.8 1.80741 25.1407 1.06667 23.1556C0.355556 21.1407 0 18.7704 0 16.0444V15.9556C0 13.2296 0.355556 10.8593 1.06667 8.84444C1.80741 6.82963 2.93333 5.17037 4.44444 3.86667C5.98519 2.56296 7.92593 1.6 10.2667 0.977778C12.6074 0.325926 15.3926 0 18.6222 0Z" fill="#6588F4" style="fill:#6588F4;fill:color(display-p3 0.3961 0.5333 0.9569);fill-opacity:1;"/>
<path d="M42.4306 0.444444H52.2083V31.5556H42.4306V0.444444ZM51.5417 11.3333H61.0972V20.2222H51.5417V11.3333ZM66.7417 0.444444H78.875L63.8083 16.3111V14.8444L80.2083 31.5556H67.2306L54.0306 17.6V14.3111L66.7417 0.444444Z" fill="#6588F4" style="fill:#6588F4;fill:color(display-p3 0.3961 0.5333 0.9569);fill-opacity:1;"/>
<path d="M83.316 0.444444H93.0937V31.5556H83.316V0.444444ZM92.4271 11.3333H101.983V20.2222H92.4271V11.3333ZM107.627 0.444444H119.76L104.694 16.3111V14.8444L121.094 31.5556H108.116L94.916 17.6V14.3111L107.627 0.444444Z" fill="#6588F4" style="fill:#6588F4;fill:color(display-p3 0.3961 0.5333 0.9569);fill-opacity:1;"/>
<path d="M128.201 22.6667C129.861 22.6667 131.12 23.0667 131.979 23.8667C132.868 24.6667 133.312 25.8222 133.312 27.3333C133.312 28.8444 132.868 30 131.979 30.8C131.12 31.6 129.861 32 128.201 32C126.542 32 125.268 31.6 124.379 30.8C123.52 30 123.09 28.8444 123.09 27.3333C123.09 25.8222 123.52 24.6667 124.379 23.8667C125.268 23.0667 126.542 22.6667 128.201 22.6667Z" fill="#6588F4" style="fill:#6588F4;fill:color(display-p3 0.3961 0.5333 0.9569);fill-opacity:1;"/>
<path d="M138.437 0.444444H161.993C163.86 0.444444 165.46 0.651851 166.793 1.06667C168.156 1.45185 169.267 2.05926 170.126 2.88889C170.986 3.68889 171.623 4.74074 172.037 6.04445C172.452 7.31852 172.66 8.84445 172.66 10.6222V10.7111C172.66 12.4889 172.452 14.0296 172.037 15.3333C171.623 16.6074 170.986 17.6593 170.126 18.4889C169.267 19.2889 168.156 19.8963 166.793 20.3111C165.46 20.6963 163.86 20.8889 161.993 20.8889H147.549V12.8889H160.438C160.882 12.8889 161.252 12.8593 161.549 12.8C161.875 12.7111 162.126 12.5926 162.304 12.4444C162.512 12.2667 162.66 12.0444 162.749 11.7778C162.837 11.4815 162.882 11.1259 162.882 10.7111V10.6222C162.882 10.2074 162.837 9.86667 162.749 9.6C162.66 9.3037 162.512 9.08148 162.304 8.93333C162.126 8.75556 161.875 8.63704 161.549 8.57778C161.252 8.48889 160.882 8.44444 160.438 8.44444H148.215V31.5556H138.437V0.444444Z" fill="#6588F4" style="fill:#6588F4;fill:color(display-p3 0.3961 0.5333 0.9569);fill-opacity:1;"/>
<path d="M177.326 0.444444H202.437C204.008 0.444444 205.356 0.622222 206.482 0.977778C207.637 1.3037 208.586 1.82222 209.326 2.53333C210.067 3.24444 210.615 4.13333 210.971 5.2C211.356 6.26667 211.549 7.52593 211.549 8.97778V9.06667C211.549 10.4296 211.386 11.6 211.06 12.5778C210.734 13.5259 210.215 14.3111 209.504 14.9333C208.793 15.5259 207.875 15.9704 206.749 16.2667C205.623 16.5333 204.26 16.6667 202.66 16.6667V16.2222C204.349 16.2222 205.756 16.3407 206.882 16.5778C208.037 16.8148 208.956 17.2148 209.637 17.7778C210.349 18.3111 210.837 19.037 211.104 19.9556C211.4 20.8444 211.549 21.9704 211.549 23.3333V31.5556H201.771V24.2222C201.771 23.6 201.712 23.0815 201.593 22.6667C201.475 22.2222 201.282 21.8815 201.015 21.6444C200.778 21.3778 200.437 21.1852 199.993 21.0667C199.578 20.9481 199.06 20.8889 198.437 20.8889H186.437V12.8889H199.326C199.771 12.8889 200.141 12.8593 200.437 12.8C200.763 12.7111 201.015 12.5778 201.193 12.4C201.4 12.2222 201.549 12 201.637 11.7333C201.726 11.437 201.771 11.0963 201.771 10.7111V10.6222C201.771 10.2074 201.726 9.86667 201.637 9.6C201.549 9.33333 201.4 9.11111 201.193 8.93333C201.015 8.75556 200.763 8.63704 200.437 8.57778C200.141 8.48889 199.771 8.44444 199.326 8.44444H187.104V31.5556H177.326V0.444444Z" fill="#6588F4" style="fill:#6588F4;fill:color(display-p3 0.3961 0.5333 0.9569);fill-opacity:1;"/>
<path d="M234.681 8.88889C233.081 8.88889 231.718 9.02222 230.592 9.28889C229.496 9.55556 228.592 9.97037 227.881 10.5333C227.17 11.0963 226.652 11.8222 226.326 12.7111C226 13.6 225.837 14.6815 225.837 15.9556V16.0444C225.837 17.3185 226 18.4 226.326 19.2889C226.652 20.1778 227.17 20.9037 227.881 21.4667C228.592 22.0296 229.496 22.4444 230.592 22.7111C231.718 22.9778 233.081 23.1111 234.681 23.1111H234.77C236.37 23.1111 237.718 22.9778 238.815 22.7111C239.94 22.4444 240.859 22.0296 241.57 21.4667C242.281 20.9037 242.8 20.1778 243.126 19.2889C243.452 18.4 243.615 17.3185 243.615 16.0444V15.9556C243.615 14.6815 243.452 13.6 243.126 12.7111C242.8 11.8222 242.281 11.0963 241.57 10.5333C240.859 9.97037 239.94 9.55556 238.815 9.28889C237.718 9.02222 236.37 8.88889 234.77 8.88889H234.681ZM234.681 0H234.77C238 0 240.785 0.325926 243.126 0.977778C245.466 1.6 247.392 2.56296 248.903 3.86667C250.444 5.17037 251.57 6.82963 252.281 8.84444C253.022 10.8593 253.392 13.2296 253.392 15.9556V16.0444C253.392 18.7704 253.022 21.1407 252.281 23.1556C251.57 25.1407 250.444 26.8 248.903 28.1333C247.392 29.437 245.466 30.4148 243.126 31.0667C240.785 31.6889 238 32 234.77 32H234.681C231.452 32 228.666 31.6889 226.326 31.0667C223.985 30.4148 222.044 29.437 220.503 28.1333C218.992 26.8 217.866 25.1407 217.126 23.1556C216.415 21.1407 216.059 18.7704 216.059 16.0444V15.9556C216.059 13.2296 216.415 10.8593 217.126 8.84444C217.866 6.82963 218.992 5.17037 220.503 3.86667C222.044 2.56296 223.985 1.6 226.326 0.977778C228.666 0.325926 231.452 0 234.681 0Z" fill="#6588F4" style="fill:#6588F4;fill:color(display-p3 0.3961 0.5333 0.9569);fill-opacity:1;"/>
</svg>
